<svg
	xmlns="http://www.w3.org/2000/svg"
	width="500"
	height="500"
	viewBox="0 0 500 500"
	version="1.1">

	<g transform="translate(0,-552.36216)">
		<g transform="matrix(0.8932254,0,0,0.83325219,-668.73901,252.59879)">
			<path
				d="m 1008.3571,871.24627 c -39.79896,-2.18156 -79.72701,-14.62167 -114.49998,-35.67399 -31.45465,-19.04333 -63.42407,-51.02432 -82.75159,-82.78154 -7.07194,-11.61996 -12.78696,-23.03644 -18.19065,-36.33816 -6.87742,-16.92945 -7.42549,-15.16184 4.70111,-15.16184 l 10.39364,0 4.30885,10.25 c 27.6253,65.7157 84.43346,115.10198 152.7978,132.83504 13.62904,3.53524 35.02942,6.90372 43.90222,6.91035 l 6.1614,0.005 3.5161,10.5 c 1.9339,5.775 3.4362,10.43149 3.3386,10.34776 -0.098,-0.0837 -6.2525,-0.48523 -13.6775,-0.89223 z m 15.3386,-0.45553 c 0.199,-0.55 1.8408,-5.1625 3.6484,-10.25 l 3.2867,-9.25 6.1132,-0.005 c 8.8595,-0.007 30.8368,-3.4395 43.9152,-6.85953 68.4933,-17.9111 125.3282,-67.3532 152.7555,-132.88586 l 4.2899,-10.25 10.3937,0 c 12.1266,0 11.5785,-1.76761 4.7011,15.16184 -23.0147,56.6532 -65.7212,102.70244 -119.9423,129.33071 -24.3558,11.96129 -43.5885,18.21393 -69.4994,22.59459 -14.246,2.40851 -40.2321,3.98966 -39.662,2.41325 z M 986.46237,735.98061 c -20.01711,-61.70443 -36.57565,-112.68173 -36.79675,-113.28289 -0.2211,-0.60116 2.75008,-3.39285 6.60262,-6.20376 l 7.00462,-5.11074 4.9621,15.20376 c 2.72916,8.36207 15.84694,48.72876 29.15063,89.70376 13.30371,40.975 24.54181,75.14597 24.97361,75.93549 0.6933,1.26777 5.541,-12.9795 28.3893,-83.43549 l 2.27,-7 8.7494,-0.2901 c 8.6921,-0.2882 8.7447,-0.27525 8.0299,1.97713 -0.7057,2.22325 -46.2543,142.64877 -46.709,144.00284 -0.1274,0.37942 -16.6093,-49.79558 -36.62643,-111.5 z m -201.6365,-42.42702 c -3.05377,-10.47127 -6.37451,-26.58717 -7.98723,-38.76285 -2.07284,-15.6495 -2.09553,-47.12582 -0.0449,-62.29847 7.58125,-56.09428 31.3291,-104.21115 70.96201,-143.78019 12.38134,-12.36139 26.51014,-24.42134 28.61076,-24.42134 0.3911,0 1.98833,4.32506 3.54939,9.61124 l 2.83828,9.61124 -5.44852,4.60622 c -43.9492,37.15499 -71.66988,86.53161 -80.06271,142.60928 -3.98614,26.63387 -2.59472,59.14496 3.65464,85.39207 1.35275,5.68153 2.45955,10.4645 2.45955,10.62884 0,0.31655 -13.67681,10.66751 -15.6753,11.86348 -0.78745,0.47123 -1.72993,-1.19843 -2.85595,-5.05952 z m 466.48133,0.20223 c -4.0975,-3.06423 -7.8135,-5.93336 -8.2577,-6.37584 -0.4442,-0.44249 0.092,-4.35608 1.1914,-8.69688 14.7873,-58.38161 4.4618,-124.35833 -27.371,-174.89236 -12.3818,-19.65583 -32.1661,-42.40108 -48.9496,-56.2756 l -4.9368,-4.08114 2.8266,-9.57163 c 1.5546,-5.2644 3.249,-9.57163 3.7654,-9.57163 1.5977,0 15.7916,11.9148 26.1424,21.94483 20.5172,19.88141 36.8021,42.38672 49.6066,68.55517 8.7581,17.89863 13.6336,31.01704 17.9523,48.30388 10.0201,40.10759 9.8182,83.80551 -0.5715,123.69612 -1.4325,5.5 -2.9068,10.57069 -3.2763,11.2682 -0.4738,0.89455 -2.8667,-0.37326 -8.1218,-4.30312 z m -439.83494,-2.30908 c 3.80492,-2.942 185.85902,-135.09296 188.40716,-136.76257 2.17758,-1.42681 2.65958,-1.25165 8.89008,3.23042 3.6232,2.60647 6.5727,4.99488 6.5545,5.30759 -0.018,0.31271 -34.77134,25.76856 -77.22924,56.56856 l -77.19618,56 48.88862,0.5 48.88863,0.5 2.77184,8.25 2.77184,8.25 -77.56605,0 c -75.57427,0 -77.50482,-0.0473 -75.1812,-1.844 z m 184.46698,-5.90941 c -1.42017,-4.26437 -2.58212,-8.08711 -2.58212,-8.49498 0,-0.40786 43.07708,-0.85632 95.72678,-0.99659 l 95.7267,-0.25502 -38.9767,-28.32279 c -21.4372,-15.57754 -39.0992,-28.85254 -39.2488,-29.5 -0.3839,-1.66152 4.0937,-14.59435 5.1196,-14.78697 0.6775,-0.12722 56.1951,39.81705 116.1329,83.55631 l 8.9805,6.55345 -119.1484,0 -119.14834,0 -2.58212,-7.75341 z m 68.41786,-17.86722 c 0,-0.82673 58.0841,-179.66673 58.6653,-180.62937 1.5116,-2.50391 -5.2375,2.12708 -40.2256,27.60141 l -38.9397,28.35142 -4,-2.85251 c -2.2,-1.56889 -5.3085,-3.90132 -6.9079,-5.1832 l -2.9079,-2.33069 61.9079,-45.02301 c 34.0494,-24.76265 62.0475,-44.91131 62.218,-44.77479 0.2544,0.20363 -52.1692,162.36636 -68.4416,211.71137 l -4.5343,13.75 -8.4171,0 c -4.6294,0 -8.4171,-0.27928 -8.4171,-0.62063 z M 1000.8959,542.2531 c -42.32865,-30.7793 -77.34271,-55.96236 -77.809,-55.96236 -0.4663,0 -0.64561,0.3375 -0.39846,0.75 0.52448,0.87539 29.66868,90.62644 29.66868,91.3662 0,0.93339 -13.09798,10.11915 -13.64661,9.57052 -0.73041,-0.73041 -47.54861,-144.84088 -47.1584,-145.15763 0.16776,-0.13616 42.60501,30.52166 94.30501,68.12852 51.69998,37.60685 94.85388,68.95525 95.89748,69.66311 1.8455,1.25179 1.8227,1.51143 -0.8322,9.48315 -1.5012,4.50787 -2.8051,8.17919 -2.8974,8.15849 -0.092,-0.0207 -34.8004,-25.2207 -77.1291,-56 z M 886.09793,428.67137 c -4.26756,-3.04803 -7.4755,-6.0009 -7.12876,-6.56193 1.16773,-1.88943 17.79509,-12.12525 29.88795,-18.39905 60.41846,-31.34524 132.32398,-36.42438 196.49998,-13.88002 18.5503,6.51651 56.2431,26.22868 60.913,31.85556 0.9535,1.1489 -0.297,2.44238 -6.774,7.00691 -4.3689,3.07884 -8.2276,5.5979 -8.5748,5.5979 -0.3472,0 -5.2287,-2.77773 -10.8477,-6.17273 -71.6181,-43.27134 -163.38121,-43.04204 -235.43949,0.58832 -5.07265,3.07142 -9.57265,5.56697 -10,5.54566 -0.42734,-0.0213 -4.26863,-2.53259 -8.53618,-5.58062 z"
				fill="rgb(33, 130, 20)"
				stroke="rgb(52, 109, 42)"
				stroke-width="3"
				stroke-linecap="round"
				stroke-linejoin="round"
			/>
		</g>

		<g transform="matrix(1.8662995,0,0,1.2403756,-202.331,498.85334)">
			<path
				d="m 132.14062,400.92676 0,3.54492 q -1.72851,0.26367 -2.57812,1.52344 -0.84961,1.25976 -0.84961,3.60351 l 0,24.19922 0,1.25977 q 0,0.67383 0.26367,1.43554 0.29297,0.73243 0.73242,1.25977 0.46875,0.58594 0.9961,0.84961 0.52734,0.23437 1.43554,0.32226 l 0,3.57422 q -5.68359,0 -9.87304,-2.95898 -3.69141,-2.60742 -5.56641,-7.00195 -1.875,-4.42383 -1.875,-10.45899 0,-4.42383 1.20117,-8.23242 1.23047,-3.83789 3.54493,-6.65039 2.34375,-2.8418 5.5957,-4.57031 3.28125,-1.72852 6.29883,-1.72852 l 0.67382,0.0293 z m 2.31446,3.57422 0,-3.54493 q 1.43554,0.23438 2.31445,0.49805 0.9082,0.26367 3.25195,1.11328 1.49414,0.52735 1.99219,0.52735 0.84961,0 1.28906,-0.76172 l 0.38086,-0.70313 q 0.35157,-0.70312 1.31836,-0.70312 0.79102,0 1.20117,0.46875 0.43946,0.46875 0.43946,1.37695 l 0,12.1875 q 0,1.17188 -0.52735,1.69922 -0.52734,0.52734 -1.20117,0.52734 -0.70312,0 -1.14258,-0.43945 -0.41015,-0.46875 -0.67382,-1.49414 -0.61524,-2.31445 -1.20118,-3.63281 -1.25976,-2.78321 -2.87109,-4.51172 -1.08398,-1.17188 -2.16797,-1.78711 -1.08398,-0.64453 -2.40234,-0.82031 z m 0.0879,37.99804 0,-3.57422 q 2.28515,-0.17578 4.80469,-1.72851 1.34765,-0.84961 2.40234,-2.25586 1.05469,-1.43555 1.58203,-3.13477 0.29297,-0.9375 0.67383,-1.31836 0.41016,-0.41015 1.05469,-0.41015 0.70312,0 1.17187,0.52734 0.46875,0.52735 0.46875,1.31836 0,1.31836 -1.02539,3.19336 -0.99609,1.875 -2.57812,3.45703 -1.9336,1.9336 -3.98438,2.8711 -2.02148,0.9375 -4.57031,1.05468 z"
				fill="rgb(33, 130, 20)"
				stroke="rgb(52, 109, 42)"
				stroke-width="1.5"
				stroke-linecap="round"
				stroke-linejoin="round"
			/>
			<path
				d="m 164.57227,400.92676 0,3.36914 q -1.81641,0.49805 -2.78321,1.55273 -0.9375,1.02539 -0.9375,2.54883 0,1.46484 0.79102,2.57813 0.79101,1.08398 2.57812,2.08007 1.23047,0.67383 5.56641,2.57813 2.63672,1.14258 4.07226,2.08008 1.46485,0.9082 2.75391,2.28515 3.45703,3.63282 3.45703,8.64258 0,3.7793 -1.875,6.91406 -1.875,3.13477 -5.15625,4.92188 -1.75781,0.9375 -3.86719,1.46484 -2.08007,0.55664 -3.89648,0.55664 l 0,-3.33984 q 2.54883,-0.61523 3.66211,-1.69922 1.14258,-1.11328 1.14258,-2.98828 0,-1.96289 -1.75781,-3.45703 -1.17188,-0.9668 -4.45313,-2.40235 -3.60352,-1.58203 -4.95117,-2.25585 -1.31836,-0.67383 -2.54883,-1.58204 -5.50781,-3.92578 -5.50781,-10.45898 0,-3.33984 1.37695,-6.15234 1.37695,-2.8418 3.83789,-4.57032 3.42774,-2.40234 8.4961,-2.66601 z m 2.31445,3.36914 0,-3.22266 q 1.75781,0.11719 3.04687,0.46875 1.28907,0.32227 3.66211,1.31836 0.58594,0.23438 0.9668,0.23438 0.55664,0 0.82031,-0.38086 l 0.64453,-0.84961 q 0.46875,-0.64453 1.14258,-0.64453 0.79102,0 1.14258,0.58593 0.38086,0.55664 0.38086,1.78711 l 0,9.66797 q 0,0.84961 -0.49805,1.40625 -0.46875,0.52735 -1.23047,0.52735 -0.58593,0 -1.08398,-0.38086 -0.26367,-0.23438 -0.43945,-0.55664 -0.14649,-0.35157 -0.29297,-1.14258 -0.32227,-1.43555 -1.11328,-2.95899 -0.79102,-1.52343 -1.84571,-2.72461 -2.10937,-2.37304 -5.30273,-3.13476 z m -3.83789,34.86328 0,3.33984 q -2.40235,0 -5.30274,-1.37695 -1.08398,-0.49805 -1.49414,-0.64453 -0.41015,-0.14649 -0.79101,-0.14649 -0.58594,0 -0.87891,0.20508 -0.29297,0.17578 -0.9375,0.9375 -0.52734,0.64453 -1.14258,0.64453 -1.64062,0 -1.64062,-2.51953 l 0,-10.66406 q 0,-0.82031 0.46875,-1.37695 0.46875,-0.58594 1.17187,-0.61524 0.64453,-0.0293 0.9961,0.38086 0.38086,0.38086 0.64453,1.37696 0.67383,2.51953 1.93359,4.71679 1.28906,2.19727 2.98828,3.72071 1.72852,1.58203 3.98438,2.02148 z"
				fill="rgb(33, 130, 20)"
				stroke="rgb(52, 109, 42)"
				stroke-width="1.5"
				stroke-linecap="round"
				stroke-linejoin="round"
			/>
			<path
				d="m 206.34961,423.36816 0,12.77344 q 0,1.14258 0.43945,1.64063 0.23438,0.29297 0.43946,0.38086 0.20507,0.0586 1.34765,0.35156 1.40625,0.32226 1.40625,1.61133 0,0.84961 -0.79101,1.28906 -0.46875,0.29297 -1.81641,0.29297 l -0.99609,0 -13.06641,0 -0.9668,0 q -1.31836,0 -1.8457,-0.35156 -0.76172,-0.46875 -0.76172,-1.23047 0,-1.28907 1.40625,-1.61133 1.14258,-0.29297 1.34766,-0.35156 0.20508,-0.0879 0.41015,-0.38086 0.43946,-0.49805 0.43946,-1.64063 l 0,-9.90234 -8.29102,-19.77539 q -0.46875,-1.11328 -1.31836,-1.61133 -0.79101,-0.49805 -1.02539,-0.79102 -0.20508,-0.29297 -0.20508,-0.82031 0,-1.52344 2.22657,-1.52344 l 14.35546,0 q 1.14258,0 1.58204,0.26368 0.73242,0.46875 0.73242,1.23046 0,0.9375 -0.84961,1.46485 l -0.84961,0.52734 q -0.49805,0.32227 -0.49805,0.9668 0,0.73242 0.32227,1.43555 l 6.82617,15.76171 z m 1.14258,-2.7832 -1.64063,-3.83789 3.07617,-6.88477 q 0.38086,-0.8789 0.38086,-2.40234 0,-1.69922 -1.875,-2.43164 -1.02539,-0.41016 -1.34765,-0.70312 -0.29297,-0.32227 -0.29297,-0.9668 0,-0.79102 0.52734,-1.20117 0.35156,-0.26368 0.79102,-0.35157 0.43945,-0.0879 1.52344,-0.0879 l 7.23632,0 q 2.05078,0 2.05078,1.64063 0,0.58594 -0.29296,0.9082 -0.26368,0.32227 -1.05469,0.67383 -1.43555,0.64453 -2.05078,1.28906 -0.87891,0.9375 -1.46485,2.13867 l -0.67382,1.49414 -4.89258,10.72266 z"
				fill="rgb(33, 130, 20)"
				stroke="rgb(52, 109, 42)"
				stroke-width="1.5"
				stroke-linecap="round"
				stroke-linejoin="round"
			/>
			<path
				d="m 237.14062,401.71777 15.58594,27.07032 0,12.91992 -7.99804,0 -19.89258,-34.27735 q -0.64453,-1.11328 -1.05469,-1.55273 -0.41016,-0.43945 -1.05469,-0.64453 l -1.11328,-0.41016 q -0.43945,-0.14648 -0.70312,-0.52734 -0.26368,-0.38086 -0.26368,-0.84961 0,-0.49805 0.26368,-0.9082 0.26367,-0.43946 0.70312,-0.61524 0.49805,-0.20508 2.69531,-0.20508 l 12.83203,0 z m -12.27539,10.28321 3.10547,5.15625 0,15.70312 q 0,2.05078 0.67383,3.36914 0.70313,1.31836 2.19727,2.16797 l 0.8789,0.49805 q 0.76172,0.43945 0.76172,1.31836 0,0.67383 -0.55664,1.11328 -0.46875,0.38086 -1.93359,0.38086 l -6.76758,0 q -2.66602,0 -2.66602,-1.52344 0,-0.52734 0.26368,-0.82031 0.29296,-0.32227 1.23046,-0.84961 2.8125,-1.55274 2.8125,-5.6543 l 0,-20.85937 z m 27.86133,12.09961 -3.10547,-5.24414 0,-8.11524 q 0,-2.46094 -0.73242,-3.75 -0.70312,-1.31836 -2.51953,-2.25586 -0.61523,-0.29297 -0.84961,-0.61523 -0.23437,-0.35157 -0.23437,-0.87891 0,-0.79101 0.49804,-1.14258 0.52735,-0.38086 1.66992,-0.38086 l 7.32422,0 q 1.49414,0 1.96289,0.46875 0.49805,0.46875 0.49805,1.11328 0,0.61524 -0.29297,0.9375 -0.26367,0.29297 -1.31836,0.82032 -1.55273,0.79101 -2.34375,2.43164 -0.55664,1.20117 -0.55664,3.25195 l 0,13.35938 z"
				fill="rgb(33, 130, 20)"
				stroke="rgb(52, 109, 42)"
				stroke-width="1.5"
				stroke-linecap="round"
				stroke-linejoin="round"
			/>
			<path
				d="m 282.75586,401.71777 0,34.42383 q 0,1.14258 0.43945,1.64063 0.23438,0.29297 0.43946,0.38086 0.20507,0.0586 1.34765,0.35156 1.40625,0.32226 1.40625,1.61133 0,0.76172 -0.76172,1.23047 -0.55664,0.35156 -1.875,0.35156 l -0.96679,0 -13.06641,0 -0.9668,0 q -1.28906,0 -1.96289,-0.38086 -0.64453,-0.41016 -0.64453,-1.20117 0,-1.28907 1.40625,-1.61133 1.14258,-0.29297 1.34766,-0.35156 0.20508,-0.0879 0.41015,-0.38086 0.43946,-0.49805 0.43946,-1.64063 l 0,-34.42383 13.00781,0 z m 10.13672,0 0,11.98243 q 0,0.8496 -0.49805,1.37695 -0.46875,0.52734 -1.23047,0.52734 -0.73242,0 -1.23047,-0.46875 -0.46875,-0.49804 -0.61523,-1.34765 l -0.29297,-1.78711 q -0.43945,-2.72461 -1.69922,-4.7168 -0.79101,-1.23047 -2.13867,-2.02148 l 0,-3.54493 7.70508,0 z m -33.22266,0 7.70508,0 0,3.54493 q -1.37695,0.79101 -2.13867,2.02148 -1.25977,1.99219 -1.69922,4.7168 l -0.29297,1.78711 q -0.14648,0.84961 -0.64453,1.34765 -0.46875,0.46875 -1.20117,0.46875 -0.76172,0 -1.25977,-0.52734 -0.46875,-0.52735 -0.46875,-1.37695 l 0,-11.98243 z"
				fill="rgb(33, 130, 20)"
				stroke="rgb(52, 109, 42)"
				stroke-width="1.5"
				stroke-linecap="round"
				stroke-linejoin="round"
			/>
			<path
				d="m 308.24414,401.71777 11.80664,0 8.14453,34.42383 q 0.23438,0.9082 0.52735,1.61133 0.26367,0.55664 1.17187,0.9082 0.76172,0.32227 1.05469,0.64453 0.29297,0.32227 0.29297,0.87891 0,1.52344 -2.28516,1.52344 l -14.61914,0 q -0.87891,0 -1.40625,-0.41016 -0.52734,-0.43945 -0.52734,-1.14258 0,-0.58593 0.23437,-0.8789 0.23438,-0.29297 1.05469,-0.73242 0.58594,-0.29297 0.82031,-0.64454 0.23438,-0.35156 0.23438,-0.8789 0,-0.49805 -0.0879,-0.87891 l -0.9375,-4.24805 -8.17383,0 0.79101,-3.48632 6.5625,0 -5.39062,-23.81836 0.73242,-2.8711 z m -2.02148,7.44141 1.49414,6.06445 -5.18555,18.92578 q -0.23438,0.82032 -0.23438,1.52344 0,1.8457 1.72852,2.63672 l 1.02539,0.46875 q 0.9668,0.43945 0.9668,1.46484 0,1.46485 -2.13867,1.46485 l -7.44141,0 q -1.08398,0 -1.72852,-0.43946 -0.61523,-0.46875 -0.61523,-1.25976 0,-0.84961 1.28906,-1.40625 1.20117,-0.52734 1.75781,-0.9375 0.58594,-0.43945 1.11329,-1.17188 0.82031,-1.20117 1.34765,-3.19336 l 6.6211,-24.14062 z"
				fill="rgb(33, 130, 20)"
				stroke="rgb(52, 109, 42)"
				stroke-width="1.5"
				stroke-linecap="round"
				stroke-linejoin="round"
			/>
			<path
				d="m 349.61133,406.84473 14.73633,29.9707 q 0.52734,1.02539 1.43554,1.49414 0.79102,0.41016 1.05469,0.76172 0.29297,0.35156 0.29297,0.9668 0,0.79101 -0.58594,1.25976 -0.49805,0.41016 -2.10937,0.41016 l -13.74024,0 q -1.58203,0 -2.05078,-0.20508 -1.02539,-0.43945 -1.02539,-1.49414 0,-0.38086 0.20508,-0.64453 0.20508,-0.29297 0.76172,-0.70313 0.99609,-0.73242 0.96679,-1.34765 -0.0293,-0.49805 -0.52734,-1.49414 l -14.38477,-28.97461 q -0.35156,-0.73243 -0.76171,-1.14258 -0.41016,-0.43945 -1.08399,-0.79102 -0.58594,-0.29297 -0.82031,-0.64453 -0.20508,-0.35156 -0.20508,-0.9668 0,-0.8789 0.61524,-1.23046 0.64453,-0.35157 2.25585,-0.35157 l 13.65235,0 q 1.49414,0 2.13867,0.38086 0.67383,0.38086 0.67383,1.23047 0,0.84961 -0.9668,1.49414 -0.43945,0.32227 -0.61523,0.55664 -0.14649,0.20508 -0.14649,0.58594 0,0.41016 0.23438,0.87891 z m 6.59179,8.11523 -1.64062,-3.25195 1.64062,-2.78321 q 0.55665,-0.96679 0.55665,-1.66992 0,-0.64453 -0.41016,-1.25976 -0.38086,-0.61524 -1.02539,-0.90821 l -1.02539,-0.46875 q -0.29297,-0.14648 -0.52735,-0.55664 -0.20507,-0.41015 -0.20507,-0.82031 0,-0.70312 0.49804,-1.11328 0.49805,-0.41016 1.31836,-0.41016 l 8.4668,0 q 0.82031,0 1.34766,0.38086 0.55664,0.35157 0.55664,0.9375 0,0.70313 -0.52735,1.23047 -0.20508,0.17578 -1.23047,0.73242 -2.08007,1.14258 -3.45703,3.31055 l -4.33594,6.65039 z m -13.82812,12.45117 1.61133,3.33985 -1.81641,2.95898 q -0.99609,1.64063 -0.99609,2.60742 0,1.40625 1.58203,2.05078 0.87891,0.35157 1.20117,0.70313 0.32227,0.35156 0.32227,0.9668 0,0.82031 -0.70313,1.34765 -0.26367,0.20508 -0.58594,0.26367 -0.32226,0.0586 -1.23046,0.0586 l -7.5586,0 q -0.9375,0 -1.49414,-0.38086 -0.52734,-0.41016 -0.52734,-1.11328 0,-0.55664 0.32226,-0.90821 0.35157,-0.38086 1.20117,-0.70312 2.19727,-0.84961 3.39844,-2.7832 l 5.27344,-8.40821 z"
				fill="rgb(33, 130, 20)"
				stroke="rgb(52, 109, 42)"
				stroke-width="1.5"
				stroke-linecap="round"
				stroke-linejoin="round"
			/>
		</g>
	</g>
</svg>
